<svg xmlns="http://www.w3.org/2000/svg" version="1.0" id="degree" viewBox="8.45 6.44 7.11 11.12"><path fill="#010101" d="M14.217 17.561a4.192 4.192 0 0 1-2.119-.579 4.156 4.156 0 0 1-1.938-2.553c-.61-2.255.72-4.591 2.965-5.205a4.284 4.284 0 0 1 2.163-.001.35.35 0 1 1-.177.677 3.584 3.584 0 0 0-1.805 0c-1.87.511-2.98 2.463-2.469 4.349a3.46 3.46 0 0 0 1.615 2.128 3.486 3.486 0 0 0 2.659.367.35.35 0 1 1 .179.677c-.355.093-.716.14-1.073.14zM9.848 9.232c-.757 0-1.397-.639-1.397-1.396S9.09 6.44 9.848 6.44c.771 0 1.398.626 1.398 1.396s-.627 1.396-1.398 1.396zm0-2.091c-.372 0-.697.325-.697.696s.326.696.697.696c.385 0 .698-.312.698-.696s-.314-.696-.698-.696z"></path></svg>