<svg xmlns="http://www.w3.org/2000/svg" width="24" height="24" version="1.0" id="degree"><path fill="#010101" d="M11.901 17.638a.35.35 0 0 1-.35-.35V9.144a.35.35 0 0 1 .35-.35h3.709a.35.35 0 0 1 0 .7h-3.359v7.794a.35.35 0 0 1-.35.35z"></path><path fill="#010101" d="M15.384 13.566h-3.483a.35.35 0 0 1 0-.7h3.483a.35.35 0 0 1 0 .7zM9.438 9.156A1.4 1.4 0 0 1 8.04 7.759c0-.757.64-1.397 1.398-1.397.771 0 1.397.627 1.397 1.397 0 .783-.614 1.397-1.397 1.397zm0-2.094a.716.716 0 0 0-.698.697c0 .384.313.697.698.697a.674.674 0 0 0 .697-.697.698.698 0 0 0-.697-.697z"></path></svg>