<svg xmlns="http://www.w3.org/2000/svg" width="24" height="24" version="1.0" id="weather"><path fill="#010101" d="M11.589 17.906a2.814 2.814 0 0 1-2.813-2.809c0-.738.308-1.455.85-1.989V8c0-.882.858-1.906 1.963-1.906 1.072 0 1.936 1.043 1.936 1.906v5.108c.542.534.85 1.251.85 1.989 0 1.549-1.25 2.809-2.786 2.809zm0-11.113c-.721 0-1.263.732-1.263 1.207v5.26a.35.35 0 0 1-.118.262 2.118 2.118 0 0 0-.731 1.576c0 1.163.948 2.109 2.113 2.109 1.15 0 2.085-.946 2.085-2.109 0-.59-.267-1.164-.731-1.576a.348.348 0 0 1-.118-.262V8c-.001-.477-.555-1.207-1.237-1.207z"></path><path fill="#010101" d="M11.532 14.514a.35.35 0 0 1-.35-.35V8.227a.35.35 0 0 1 .7 0v5.938a.35.35 0 0 1-.35.349z"></path><path fill="#010101" d="M11.561 16.322a1.227 1.227 0 1 1 0-2.452c.673 0 1.2.538 1.2 1.227-.001.687-.528 1.225-1.2 1.225zm0-1.752a.527.527 0 0 0-.527.527c0 .284.241.525.527.525.28 0 .5-.231.5-.525-.001-.295-.22-.527-.5-.527zm3.313-2.007h-1.671a.35.35 0 1 1 0-.7h1.671a.35.35 0 1 1 0 .7zm0-1.612h-1.671a.35.35 0 1 1 0-.7h1.671a.35.35 0 1 1 0 .7zm0-1.67h-1.671a.35.35 0 1 1 0-.7h1.671a.35.35 0 1 1 0 .7z"></path></svg>