<svg xmlns="http://www.w3.org/2000/svg" width="24" height="24" version="1.0" id="weather"><path fill="#010101" d="M10.826 18.344a.352.352 0 0 1-.327-.224l-.805-2.086-2.188.326a.359.359 0 0 1-.33-.134.353.353 0 0 1-.042-.354l.879-2.005L6.2 12.535a.35.35 0 0 1 .08-.608l2.065-.804-.302-2.215a.35.35 0 0 1 .486-.368l2.04.879 1.336-1.787a.349.349 0 0 1 .606.083l.707 1.811a.35.35 0 1 1-.653.254l-.478-1.224-1.125 1.504a.349.349 0 0 1-.419.111l-1.722-.743.256 1.875a.35.35 0 0 1-.22.373l-1.729.673 1.525 1.121a.35.35 0 0 1 .113.423l-.736 1.681 1.838-.273a.344.344 0 0 1 .378.22l.678 1.757 1.121-1.5a.35.35 0 1 1 .561.419l-1.5 2.008a.35.35 0 0 1-.28.139z"></path><path fill="#010101" d="M6.208 14.695a.352.352 0 0 1-.338-.258.351.351 0 0 1 .247-.43l6.684-1.809a.354.354 0 0 1 .429.246.351.351 0 0 1-.247.43L6.3 14.684a.406.406 0 0 1-.092.011z"></path><path fill="#010101" d="M12.921 18.57a.35.35 0 0 1-.338-.26L9.751 7.707a.35.35 0 0 1 .248-.428.347.347 0 0 1 .429.248l2.832 10.604a.35.35 0 0 1-.339.439z"></path><path fill="#010101" d="M12.298 13.734a.346.346 0 0 1-.175-.047l-5.551-3.223a.35.35 0 0 1-.127-.479.352.352 0 0 1 .478-.126l5.551 3.223a.35.35 0 0 1 .127.479.351.351 0 0 1-.303.173z"></path><path fill="#010101" d="M8.757 18.033a.35.35 0 0 1-.304-.524l4.051-7.098a.35.35 0 1 1 .609.348l-4.051 7.098a.35.35 0 0 1-.305.176z"></path><path fill="#010101" d="M14.478 17.24c-1.536 0-2.786-1.26-2.786-2.809 0-.738.308-1.455.85-1.989V7.334c0-.862.864-1.904 1.936-1.904 1.105 0 1.963 1.023 1.963 1.904v5.108c.542.534.85 1.251.85 1.989a2.814 2.814 0 0 1-2.813 2.809zm0-11.111c-.682 0-1.236.729-1.236 1.205v5.26a.35.35 0 0 1-.118.262 2.118 2.118 0 0 0-.731 1.576c0 1.163.936 2.109 2.085 2.109a2.113 2.113 0 0 0 2.113-2.109c0-.59-.267-1.164-.731-1.576a.348.348 0 0 1-.118-.262v-5.26c-.001-.474-.543-1.205-1.264-1.205z"></path><path fill="#010101" d="M14.449 13.791a.35.35 0 0 1-.35-.35V11.83a.35.35 0 0 1 .7 0v1.611a.35.35 0 0 1-.35.35z"></path><path fill="#010101" d="M14.449 15.656c-.671 0-1.198-.538-1.198-1.225 0-.677.538-1.227 1.198-1.227.678 0 1.229.55 1.229 1.227 0 .676-.552 1.225-1.229 1.225zm0-1.752c-.279 0-.498.231-.498.527 0 .294.219.525.498.525a.528.528 0 0 0 .529-.525.536.536 0 0 0-.529-.527zM17.791 11.896h-1.699a.35.35 0 1 1 0-.7h1.699a.35.35 0 1 1 0 .7zM17.791 10.285h-1.699a.35.35 0 1 1 0-.7h1.699a.35.35 0 1 1 0 .7zM17.791 8.617h-1.699a.35.35 0 1 1 0-.7h1.699a.35.35 0 1 1 0 .7z"></path></svg>