<svg xmlns="http://www.w3.org/2000/svg" width="24" height="24" version="1.0" id="weather"><path fill="#010101" d="M11.589 17.892a2.814 2.814 0 0 1-2.813-2.809c0-.738.308-1.455.85-1.99V7.985c0-.868.858-1.877 1.963-1.877 1.09 0 1.936 1.009 1.936 1.877v5.108c.542.535.85 1.251.85 1.99 0 1.549-1.25 2.809-2.786 2.809zm0-11.084c-.733 0-1.263.703-1.263 1.177v5.26a.35.35 0 0 1-.118.262 2.116 2.116 0 0 0-.731 1.576c0 1.163.948 2.109 2.113 2.109 1.15 0 2.085-.946 2.085-2.109a2.12 2.12 0 0 0-.731-1.576.35.35 0 0 1-.118-.262v-5.26c-.001-.463-.532-1.177-1.237-1.177z"></path><path fill="#010101" d="M11.532 14.47a.35.35 0 0 1-.35-.35V10.7a.35.35 0 0 1 .7 0v3.42a.35.35 0 0 1-.35.35z"></path><path fill="#010101" d="M11.561 16.308c-.677 0-1.227-.55-1.227-1.225 0-.677.55-1.227 1.227-1.227.673 0 1.2.539 1.2 1.227-.001.687-.528 1.225-1.2 1.225zm0-1.752a.527.527 0 0 0-.527.527c0 .285.241.525.527.525.28 0 .5-.23.5-.525-.001-.295-.22-.527-.5-.527zM14.874 12.548h-1.671a.35.35 0 0 1 0-.7h1.671a.35.35 0 0 1 0 .7zM14.874 10.937h-1.671a.35.35 0 0 1 0-.7h1.671a.35.35 0 0 1 0 .7zM14.874 9.269h-1.671a.35.35 0 0 1 0-.7h1.671a.35.35 0 0 1 0 .7z"></path></svg>